<svg width="32" xmlns="http://www.w3.org/2000/svg" height="32" fill="none"><defs><clipPath id="b" class="frame-clip frame-clip-def"><rect rx="0" ry="0" width="32" height="32" transform="matrix(1.000000, 0.000000, 0.000000, 1.000000, 0.000000, 0.000000)"/></clipPath><linearGradient id="a" x1=".686" y1="-.049" x2=".408" y2="1.031"><stop offset="0" stop-color="#171c3c"/><stop offset="1" stop-color="#000d1f"/></linearGradient><pattern patternUnits="userSpaceOnUse" x="0" y="0" width="32" height="32" id="c"><rect width="32" height="32" style="fill: url(&quot;#a&quot;);"/></pattern></defs><g class="frame-container-wrapper"><g class="frame-container-blur"><g clip-path="url(#b)" class="frame-container-shadows"><g class="fills"><rect width="32" height="32" class="frame-background" transform="matrix(1.000000, 0.000000, 0.000000, 1.000000, 0.000000, 0.000000)" ry="0" fill="url(#c)" rx="0"/></g><g class="frame-children"><rect rx="0" ry="0" y="16" transform="matrix(1.000000, 0.000000, 0.000000, 1.000000, 0.000000, 0.000000)" width="32" height="1" style="fill: rgb(20, 28, 59); fill-opacity: 1;" class="fills"/><rect rx="0" ry="0" y="24" transform="matrix(1.000000, 0.000000, 0.000000, 1.000000, 0.000000, 0.000000)" width="32" height="1" style="fill: rgb(20, 28, 59); fill-opacity: 1;" class="fills"/><rect rx="0" ry="0" y="8" transform="matrix(1.000000, 0.000000, 0.000000, 1.000000, 0.000000, 0.000000)" width="32" height="1" style="fill: rgb(20, 28, 59); fill-opacity: 1;" class="fills"/><rect rx="0" ry="0" x="8" transform="matrix(1.000000, 0.000000, 0.000000, 1.000000, 0.000000, 0.000000)" width="1" height="32" style="fill: rgb(20, 28, 59); fill-opacity: 1;" class="fills"/><rect rx="0" ry="0" x="16" transform="matrix(1.000000, 0.000000, 0.000000, 1.000000, 0.000000, 0.000000)" width="1" height="32" style="fill: rgb(20, 28, 59); fill-opacity: 1;" class="fills"/><rect rx="0" ry="0" x="24" transform="matrix(1.000000, 0.000000, 0.000000, 1.000000, 0.000000, 0.000000)" width="1" height="32" style="fill: rgb(20, 28, 59); fill-opacity: 1;" class="fills"/><rect rx="0" ry="0" y="9" transform="matrix(1.000000, 0.000000, 0.000000, 1.000000, 0.000000, 0.000000)" width="12" height="2" style="fill: rgb(255, 116, 45); fill-opacity: 1;" class="fills"/><path d="M-4.654,30.582C-4.382,30.292,0.203,25.723,0.473,25.455C3.555,22.393,9.510,24.388,13.189,21.020C13.840,20.423,15.040,19.235,15.462,18.746C17.824,16.011,18.119,12.465,15.330,9.724C12.826,7.262,9.044,7.544,6.756,9.862C5.200,11.437,2.081,13.860,3.984,15.585" class="fills"/><g class="strokes"><path d="M-4.654,30.582C-4.382,30.292,0.203,25.723,0.473,25.455C3.555,22.393,9.510,24.388,13.189,21.020C13.840,20.423,15.040,19.235,15.462,18.746C17.824,16.011,18.119,12.465,15.330,9.724C12.826,7.262,9.044,7.544,6.756,9.862C5.200,11.437,2.081,13.860,3.984,15.585" style="fill: none; stroke-width: 2; stroke: rgb(255, 255, 255); stroke-opacity: 1;" class="stroke-shape"/></g><rect rx="0" ry="0" x="11" y="9" transform="matrix(1.000000, 0.000000, 0.000000, 1.000000, 0.000000, 0.000000)" width="21" height="2" style="fill: rgb(255, 116, 45); fill-opacity: 1;" class="fills"/></g></g></g></g></svg>